<svg class="svg-icon" style="width: 1em; height: 1em;vertical-align: middle;fill: currentColor;overflow: hidden;" viewBox="0 0 1024 1024" version="1.1" xmlns="http://www.w3.org/2000/svg"><path d="M898.2 747.1L697.7 631.8c-17.6-10.1-39.6 2.6-39.6 22.9v230.6c0 20.3 22 33 39.6 22.9l200.5-115.3c17.6-10.1 17.6-35.6 0-45.8zM129.9 281.4l200.5 115.3c17.6 10.1 39.6-2.6 39.6-22.9V143.2c0-20.3-22-33-39.6-22.9L129.9 235.6c-17.6 10.2-17.6 35.6 0 45.8z" fill="" /><path d="M882 288.5H267c-16.6 0-30-13.4-30-30s13.4-30 30-30h615c16.6 0 30 13.4 30 30s-13.4 30-30 30zM758 803H143c-16.6 0-30-13.4-30-30s13.4-30 30-30h615c16.6 0 30 13.4 30 30s-13.4 30-30 30z" fill="" /></svg>